<svg id="图层_1" data-name="图层 1" xmlns="http://www.w3.org/2000/svg" viewBox="0 0 312.36 53.47"><defs><style>.cls-1{fill:#f36;}.cls-2{fill:#5e5e5e;}</style></defs><title>官网logo+标语</title><path class="cls-1" d="M247.72,598.24H212.87l-3,21.28h40.95L253,604.27a5.31,5.31,0,0,0-5.26-6Zm-19.3,13.26-.27,2.46-.06.51H216.8l.1-.65.37-2.46.07-.49H228.5Zm1.33-7.49-.36,2.46-.07.49H218.14l.1-.65.36-2.46.07-.49h11.18Zm16.63,7.52L246,614l-.07.49H234.79l.07-.63.27-2.46.06-.51h11.29Zm1.28-7.51-.36,2.46-.07.49H236l.1-.65.37-2.46.07-.49h11.27Z" transform="translate(-190.64 -566.42)"/><path class="cls-1" d="M207.75,591.52l-.86.27.12-.89,1.29-9.42.07-.49h2.36l.9-6.08h-2.43l.09-.65,1.12-7.78H197.75l1.59,1.18.27.2,0,.34-.91,6.23-.07.49h-4l-.9,6.08h4.1l-.09.65-1.82,13-.05.37-.36.1-3.9,1.11-.9,6.67,3.34-1,.84-.25-.12.87-1.52,11.09-.81,6.19h6.18a4.91,4.91,0,0,0,3.31-1.27,5,5,0,0,0,1.74-3.25l2.28-16.41.05-.36.35-.11,2.16-.65.9-6.73Z" transform="translate(-190.64 -566.42)"/><polygon class="cls-1" points="52.11 21.99 55.89 29.32 64.48 29.32 60.7 21.99 52.11 21.99"/><polygon class="cls-1" points="27.71 22.06 21.61 29.35 29.58 29.35 35.62 22.06 27.71 22.06"/><polygon class="cls-1" points="101.18 21.86 102.09 15.25 94.08 15.25 93.42 15.25 93.51 14.6 94.35 8.37 94.41 7.92 94.86 7.88 102.09 7.24 103.06 0.64 78.09 2.75 77.19 9.34 84.68 8.72 85.39 8.66 85.29 9.36 84.53 14.76 84.47 15.25 83.97 15.25 75.8 15.25 74.9 21.86 82.83 21.86 83.48 21.86 83.39 22.51 79.08 53.47 88.03 53.47 92.37 22.35 92.44 21.86 92.94 21.86 101.18 21.86"/><polygon class="cls-1" points="75.56 25.13 70.9 50.74 76.58 50.74 81.23 25.13 75.56 25.13"/><polygon class="cls-1" points="97.13 50.74 99.6 25.13 93.91 25.13 91.44 50.74 97.13 50.74"/><path class="cls-1" d="M322.82,575.44h-5.4l.09-.65,1.2-8.32H307.78l1.27,2,.11.18,0,.21-.84,6.08-.07.49H296.15l-4,28.42h12.08l-.09.65L302,619.82h9.18l2.14-15.47.07-.49h12L328.5,582a5.74,5.74,0,0,0-5.68-6.54Zm-15.5,6.5-2.2,15.43-.07.49H300.7l.09-.65,2.2-15.43.07-.49h4.34Zm13.53,0-2.2,15.43-.07.49H314.3l.09-.65,2.13-15.43.07-.49h4.34Z" transform="translate(-190.64 -566.42)"/><polygon class="cls-1" points="66.75 5.77 67.58 0 26.33 1.48 25.44 7.55 66.75 5.77"/><polygon class="cls-1" points="40.84 14.46 40.77 14.95 40.28 14.95 38.05 14.95 25.29 14.95 24.66 14.95 23.91 20.19 39.37 20.19 40.02 20.19 39.93 20.84 38.73 29.38 47.61 29.38 48.83 20.68 48.9 20.19 49.4 20.19 64.93 20.19 65.68 14.95 63.31 14.95 50.56 14.95 50.31 14.95 49.66 14.95 49.74 14.3 50.39 9.34 41.55 9.38 40.84 14.46"/><polygon class="cls-1" points="62.05 12.56 63.96 9.4 55.72 9.4 53.45 13.15 53.42 13.21 61.66 13.21 62.05 12.56"/><polygon class="cls-1" points="29.56 12.56 27.65 9.4 35.89 9.4 38.16 13.15 38.19 13.21 29.95 13.21 29.56 12.56"/><path class="cls-1" d="M354.45,604.79h-7.58l0-.28.65-4.71h-4.47l.22.33.05.08v.09l-2.08,14.41h10.38a1.44,1.44,0,0,0,1-.4,2.29,2.29,0,0,0,.62-1.06ZM350,606.95l-.84,5.68,0,.21h-3.31l0-.28.81-5.68,0-.21H350Z" transform="translate(-190.64 -566.42)"/><polygon class="cls-1" points="187.94 40.24 188.63 40.24 188.1 40.68 181.31 46.29 181.11 48.29 191.76 48.29 192.13 46.41 186.51 46.41 185.84 46.41 186.35 45.98 192.91 40.37 193.12 38.37 182.46 38.37 182.07 40.24 187.94 40.24"/><polygon class="cls-1" points="201.05 38.37 200.76 38.37 200.8 38.09 201.46 33.38 196.99 33.38 197.21 33.71 197.26 33.79 197.25 33.88 195.16 48.29 199.4 48.29 200.56 40.45 200.59 40.24 200.8 40.24 203.64 40.24 203.93 40.24 203.88 40.52 202.74 48.29 206.98 48.29 208.34 38.37 201.05 38.37"/><polygon class="cls-1" points="227.18 38.37 227.46 38.63 227.55 38.72 227.53 38.85 226.14 48.29 230.38 48.29 231.54 40.45 231.57 40.24 231.78 40.24 234.62 40.24 234.91 40.24 234.86 40.52 233.72 48.29 237.96 48.29 239.32 38.37 227.18 38.37"/><path class="cls-1" d="M440.51,614.71h.29l0,.29-.47,2.81,0,.21h-6.7l-.07-.07-.61-.6-.36,2.54h10.38a1.61,1.61,0,0,0,1.1-.41,1.6,1.6,0,0,0,.56-1l1.86-13.67H434.56l-1.34,9.92Zm-2.79-2.19.89-5.65,0-.21H442l0,.29L441,612.6l0,.21h-3.29Z" transform="translate(-190.64 -566.42)"/><polygon class="cls-1" points="261.56 48.26 261.88 45.94 258.63 45.94 258.3 48.26 261.56 48.26"/><polygon class="cls-1" points="276.24 48.29 276.6 45.8 275.9 46.36 275.83 46.41 275.74 46.41 269.13 46.41 268.84 46.41 268.88 46.13 269.82 40.45 269.86 40.24 270.06 40.24 277.42 40.24 277.62 38.37 266 38.37 264.43 48.29 276.24 48.29"/><polygon class="cls-1" points="296.54 38.37 296.75 38.67 296.81 38.75 296.8 38.85 295.4 48.29 299.18 48.29 300.38 40.45 300.41 40.24 300.62 40.24 302.5 40.24 302.79 40.24 302.74 40.52 301.58 48.29 304.85 48.29 306.01 40.45 306.04 40.24 306.25 40.24 308.15 40.24 308.44 40.24 308.4 40.52 307.25 48.29 311.02 48.29 312.36 38.37 296.54 38.37"/><path class="cls-1" d="M367.1,604.63h-8.95L357,613.17a1.75,1.75,0,0,0,.33,1.08,1.12,1.12,0,0,0,1,.41H368.7c.09-.66.6-4.31,1-7.06a2.61,2.61,0,0,0-2.59-3Zm-2.64,7.94h-3.05l1-5.85h3.08Z" transform="translate(-190.64 -566.42)"/><path class="cls-1" d="M411.61,604.72h-8.95l-1.15,8.54a1.75,1.75,0,0,0,.33,1.08,1.12,1.12,0,0,0,1,.41h10.41c.09-.66.6-4.31,1-7.06a2.61,2.61,0,0,0-2.59-3ZM409,612.66h-3.05l1-5.85H410Z" transform="translate(-190.64 -566.42)"/><path class="cls-1" d="M480.9,604.63h-8.95l-1.15,8.54a1.75,1.75,0,0,0,.33,1.08,1.12,1.12,0,0,0,1,.41H482.5c.09-.66.6-4.31,1-7.06a2.61,2.61,0,0,0-2.59-3Zm-2.64,7.94H475.2l1-5.85h3.08Z" transform="translate(-190.64 -566.42)"/><path class="cls-2" d="M358.56,588.42a1.07,1.07,0,0,1-.49.21,1.49,1.49,0,0,1-.7,0l-4-1.12a14.92,14.92,0,0,1-5.49,1.22.71.71,0,0,1-.78-.43c-.1-.32.1-.73.69-.77a15.88,15.88,0,0,0,3.57-.57l-1.41-.39c-.36-.1-.6-.28-.66-.52s.06-.52.34-.81l.39-.41-2.65.2c-.32,0-.55-.28-.59-.6a.58.58,0,0,1,.53-.74l4.13-.31.7-.7a.72.72,0,0,1,.77-.07.65.65,0,0,1,.39.64l5.48-.39a.6.6,0,0,1,.64.63.63.63,0,0,1-.55.71l-1.93.14a.8.8,0,0,1-.18.57,8.54,8.54,0,0,1-1.83,1.72l2.51.7a.31.31,0,0,0,.36-.1l.62-.78a.8.8,0,0,1,1-.08.6.6,0,0,1,.11,1Zm.11-10.9-3.46.25v.84l2.28-.17a.92.92,0,0,1,.81.29.93.93,0,0,1,.13.88l-.28,1c.6,0,.76.25.74.6s-.15.69-.49.71l-8.43.62a.58.58,0,0,1-.62-.55.64.64,0,0,1,.56-.78l.77-.06v-.92l-.77.06a.6.6,0,0,1-.62-.6.63.63,0,0,1,.56-.73l.83-.07v-.81l-3.21.24a.6.6,0,0,1-.62-.6.62.62,0,0,1,.56-.73l11.15-.83a.62.62,0,0,1,.67.56A.64.64,0,0,1,358.68,577.52Zm-10.46,5.2a.68.68,0,0,1-.73-.67v-2.3a.64.64,0,0,1,.69-.64.68.68,0,0,1,.76.64V582A.66.66,0,0,1,348.21,582.72Zm3.78,2-.87.9,2.07.57a8.35,8.35,0,0,0,2.13-1.71Zm1.78-6.82-1.64.11v.83l1.64-.11Zm0,2.16-1.64.13v.91l1.64-.11Zm1.44-.1v.91l1.39-.1.28-.92Z" transform="translate(-190.64 -566.42)"/><path class="cls-2" d="M373.58,578.31,372,581v.34c.15-.11.35-.22.5-.32a.61.61,0,0,1,.9.24.71.71,0,0,1-.17,1c-.42.25-.83.53-1.23.8v4.78a1.06,1.06,0,0,1-.6,1.06,1.09,1.09,0,0,1-1.19-.38,8.67,8.67,0,0,1-1.71-3.11,1.92,1.92,0,0,1,0-1.4,2.1,2.1,0,0,1,.8-.87l1.3-.87v-1.05A2,2,0,0,1,371,580l1-1.67-2.59.17a.67.67,0,0,1-.71-.62.71.71,0,0,1,.67-.85l3.39-.22a1,1,0,0,1,1,.36A1.1,1.1,0,0,1,373.58,578.31ZM370.64,584l-.83.6a.44.44,0,0,0-.15.49,13.11,13.11,0,0,0,1,2.06Zm9.64-4.64-3,.22-1.46,1.88,1.13-.08L378.3,580a.66.66,0,0,1,1,0,.62.62,0,0,1,.08.88l-5,5a.72.72,0,1,1-1.08-.94l2.09-2.1-.87.07a.73.73,0,0,1-.83-.46,1,1,0,0,1,.21-.91l1.47-1.9-1,.07a.65.65,0,0,1-.74-.63.68.68,0,0,1,.62-.76l2.44-.18-.48-1c-.2-.39.1-.74.48-.87a.8.8,0,0,1,1,.41l.66,1.32,1.79-.14a.73.73,0,0,1,.84.71A.71.71,0,0,1,380.28,579.32Zm-.29,9.2a.72.72,0,0,1-.63.27.9.9,0,0,1-.66-.38l-1.62-2.2-2.45,2.46a.78.78,0,0,1-1.11.06c-.25-.24-.29-.67.13-1.09l5.76-5.76a.7.7,0,0,1,1.05.94l-2.34,2.35,1.25,1.68a.13.13,0,0,0,.18,0l.43-.46a.69.69,0,0,1,1.08.84Z" transform="translate(-190.64 -566.42)"/><path class="cls-2" d="M402.19,583.18l-5.16.38a16.47,16.47,0,0,1,.32,4.16,1.25,1.25,0,0,1-.41,1,1.51,1.51,0,0,1-1.09.25,11.71,11.71,0,0,1-3.07-.77.62.62,0,0,1-.31-.8.7.7,0,0,1,1-.48,16.69,16.69,0,0,0,1.92.56.35.35,0,0,0,.48-.38,16.41,16.41,0,0,0-.35-3.4l-4.8.35c-.34,0-.55-.28-.59-.62s.13-.8.53-.83l4.48-.34a5,5,0,0,0-.18-.6,1.1,1.1,0,0,1-.08-.69,1,1,0,0,1,.49-.6l3.63-2.28-7.38.52c-.34,0-.55-.29-.59-.64s.11-.8.55-.83l8.8-.62a1,1,0,0,1,1.19.7,1.27,1.27,0,0,1-.62,1.34l-4.5,2.83c.08.27.17.52.24.76l5.43-.39c.38,0,.6.29.64.64A.65.65,0,0,1,402.19,583.18Z" transform="translate(-190.64 -566.42)"/><path class="cls-2" d="M413.83,587.83a5.49,5.49,0,0,1-1.25,1.3.42.42,0,0,1-.55-.06.33.33,0,0,1,0-.49,5.19,5.19,0,0,0,1.37-1.65,1.35,1.35,0,0,1-1.23-.46,1.38,1.38,0,0,1-.06-1.5,1.32,1.32,0,0,1,1.12-.6,1.28,1.28,0,0,1,1.08.48,1.79,1.79,0,0,1,.21,1.47A4.72,4.72,0,0,1,413.83,587.83Z" transform="translate(-190.64 -566.42)"/><path class="cls-2" d="M435.93,588l-11.53.81c-.35,0-.57-.34-.59-.71a.66.66,0,0,1,.56-.77l4.4-.31V577a.71.71,0,0,1,.78-.69.7.7,0,0,1,.77.69v3.64l5-.36c.39,0,.62.35.63.73a.66.66,0,0,1-.56.74l-5.1.38v4.8l5.53-.39c.39,0,.62.35.63.73A.68.68,0,0,1,435.93,588Z" transform="translate(-190.64 -566.42)"/><path class="cls-2" d="M449.21,580.41l-.49,0v1.08l.11-.07a.6.6,0,0,1,.91.2.8.8,0,0,1-.14,1.05l-.88.69v4.43a1,1,0,0,1-.8,1.06,1.32,1.32,0,0,1-1.29-.45,7.62,7.62,0,0,1-1.13-3,2.2,2.2,0,0,1-.07-1,1.48,1.48,0,0,1,.53-.77l1.33-1v-2.07l-.91.07c-.43,0-.67-.36-.69-.76a.67.67,0,0,1,.56-.76l1-.07v-1.75a.73.73,0,0,1,.69-.78.69.69,0,0,1,.74.78v1.64h.35a.71.71,0,0,1,.71.7A.65.65,0,0,1,449.21,580.41Zm-1.92,4.1-.66.52c-.1.07-.1.21-.1.31a5.14,5.14,0,0,0,.6,1.89s.15.1.15,0Zm10.52-1a.62.62,0,0,1-.62.22,1.19,1.19,0,0,1,.07.52l-.21,2.8a.63.63,0,0,1,.49.59.64.64,0,0,1-.56.74l-4.52.32a.59.59,0,0,1-.59-.63.61.61,0,0,1,.53-.7l.59,0v-.66l-1.33.08v1.3a.71.71,0,0,1-1.41,0v-3.82a.79.79,0,0,1-.83-.25.67.67,0,0,1,.08-1l1.63-1.62-.85.06a.59.59,0,0,1-.59-.63.61.61,0,0,1,.53-.7l2.79-.2v-.45l-1.25.35a1.56,1.56,0,0,1-.64.08.82.82,0,0,1-.52-.31l-.36-.41c-.25-.29-.18-.5.2-.77a.69.69,0,0,1-.63-.57.65.65,0,0,1,.5-.76l6.53-.92a.6.6,0,0,1,.7.53.63.63,0,0,1-.49.78l-2.62.39v.46l1.68-.48a1.41,1.41,0,0,1,1,.06.77.77,0,0,1,.11,1l-.45.77.64,0a.6.6,0,0,1,.66.59.64.64,0,0,1-.56.74l-1.22.08.94.91a.09.09,0,0,0,.14,0l.11-.13c.18-.21.55-.11.77.13a.73.73,0,0,1,0,1ZM455.25,582a.66.66,0,0,1,0-.92l-.78.06v1.32a.69.69,0,0,1-.74.7.66.66,0,0,1-.67-.7v-1.22l-.76.06a.67.67,0,0,1,0,1l-1.21,1.2a.62.62,0,0,1,.57.62v1.34l1.33-.1v-.64l-.53,0a.6.6,0,0,1-.59-.64.6.6,0,0,1,.53-.69l3.6-.25a1.38,1.38,0,0,1,.42,0ZM453,578.1l-1.5.22.38.43a.39.39,0,0,0,.48.18l.64-.18Zm1.4,6.51v.64l.38,0a.6.6,0,0,1,.66.59.64.64,0,0,1-.56.73l-.48,0v.64l1.22-.08.21-2.63Zm0-5.52v.73l.6,0,.6-1Z" transform="translate(-190.64 -566.42)"/><path class="cls-2" d="M471.83,581.05l-1.16.07v.81a.57.57,0,0,1,.84.08l.88,1.22a.64.64,0,0,1-.14.9c-.28.24-.7.34-.92,0l-.66-.94v5a.69.69,0,0,1-.83.71.72.72,0,0,1-.6-.71v-4l-.73,1.3a.66.66,0,0,1-1,.21.69.69,0,0,1-.2-.91l1.89-3.57-1.18.08a.73.73,0,0,1-.78-.7.69.69,0,0,1,.66-.78l1.34-.1v-1.32l-.85.24a.64.64,0,0,1-.81-.45.7.7,0,0,1,.39-.94l3.39-.92a.7.7,0,0,1,.84.52.66.66,0,0,1-.49.88l-1,.28v1.6l1.07-.07a.7.7,0,0,1,.77.7A.72.72,0,0,1,471.83,581.05Zm1.6,4.9a.68.68,0,0,1-.73-.69V579.5a.71.71,0,0,1,1.42,0v5.77A.66.66,0,0,1,473.43,586Zm5.93-.49-2.61.18v2.48a.66.66,0,0,1-.69.69.68.68,0,0,1-.73-.69v-2.38l-.39,0c-.36,0-.57-.32-.59-.69a.66.66,0,0,1,.59-.76l.39,0v-4.09h-.24a.72.72,0,0,1-.69-.74.71.71,0,0,1,.62-.8l.31,0V577a.65.65,0,0,1,.67-.63.66.66,0,0,1,.74.63v1.57l1.71-.11a1.09,1.09,0,0,1,.94.34,1.17,1.17,0,0,1,.18,1L479,584h.22c.41,0,.59.29.62.63S479.69,585.44,479.36,585.46Zm-2.61-5.37v4.1l.77-.06L478,580Z" transform="translate(-190.64 -566.42)"/><path class="cls-2" d="M490.24,589a.69.69,0,0,1-.74-.67V577.79a.64.64,0,0,1,.71-.64.67.67,0,0,1,.7.64v10.49A.65.65,0,0,1,490.24,589Zm10.49-.34a1.08,1.08,0,0,1-1.07.17l-1.43-.56a.72.72,0,0,1-.31-1.05.77.77,0,0,1,1-.25l.67.25v-9.33l-7.69.57a.62.62,0,0,1-.63-.73.67.67,0,0,1,.6-.67l7.89-.59a1.36,1.36,0,0,1,.88.2,1,1,0,0,1,.36.85v10.38A.91.91,0,0,1,500.74,588.62Zm-5.91-1.93a.57.57,0,0,1-.79-.38c-.1-.39-.22-.83-.35-1.29a14.89,14.89,0,0,1-.63,1.51.79.79,0,0,1-.92.46.89.89,0,0,1-.67-.81,19.26,19.26,0,0,1,.38-6.18.76.76,0,0,1,.64-.6.67.67,0,0,1,.64.46l.36.88c.08-.53.15-1.05.22-1.54a.64.64,0,0,1,.74-.52.61.61,0,0,1,.56.73,33.52,33.52,0,0,1-.7,3.56c.35,1,.66,2.09.85,3A.61.61,0,0,1,494.82,586.68Zm-2.26-5.11a.08.08,0,0,0-.15,0,13.92,13.92,0,0,0-.13,3.42c0,.13.13.11.15,0a16,16,0,0,0,.6-2.09C492.88,582.45,492.72,582,492.57,581.57Zm6.53,4.92a.61.61,0,0,1-.85-.36c-.11-.41-.25-.84-.41-1.29a13.75,13.75,0,0,1-.63,1.53.85.85,0,0,1-1,.46,1,1,0,0,1-.78-.81,15.79,15.79,0,0,1,.24-6.08.71.71,0,0,1,.59-.56.73.73,0,0,1,.73.42c.18.35.36.74.56,1.15.11-.73.21-1.43.29-2a.64.64,0,0,1,.74-.52.61.61,0,0,1,.56.73,36.4,36.4,0,0,1-.74,3.77,26.77,26.77,0,0,1,1,2.84A.59.59,0,0,1,499.1,586.49Zm-2.61-5c0-.07-.14,0-.15,0a9.92,9.92,0,0,0,0,3.64c0,.14.17.15.22,0a13.66,13.66,0,0,0,.62-2.12C496.94,582.5,496.71,581.95,496.49,581.5Z" transform="translate(-190.64 -566.42)"/></svg>